<?xml version="1.0" encoding="UTF-8" standalone="no"?>
<svg
   xmlns:dc="http://purl.org/dc/elements/1.1/"
   xmlns:cc="http://creativecommons.org/ns#"
   xmlns:rdf="http://www.w3.org/1999/02/22-rdf-syntax-ns#"
   xmlns:svg="http://www.w3.org/2000/svg"
   xmlns="http://www.w3.org/2000/svg"
   xmlns:sodipodi="http://sodipodi.sourceforge.net/DTD/sodipodi-0.dtd"
   xmlns:inkscape="http://www.inkscape.org/namespaces/inkscape"
   version="1.1"
   width="24"
   height="24"
   viewBox="0 0 24 24"
   id="svg22"
   sodipodi:docname="account-voice.svg"
   inkscape:export-filename="C:\Users\Aso\Desktop\bitmap.png"
   inkscape:export-xdpi="256"
   inkscape:export-ydpi="256"
   inkscape:version="0.92.4 (5da689c313, 2019-01-14)">
  <metadata
     id="metadata28">
    <rdf:RDF>
      <cc:Work
         rdf:about="">
        <dc:format>image/svg+xml</dc:format>
        <dc:type
           rdf:resource="http://purl.org/dc/dcmitype/StillImage" />
      </cc:Work>
    </rdf:RDF>
  </metadata>
  <defs
     id="defs26" />
  <sodipodi:namedview
     pagecolor="#ffffff"
     bordercolor="#666666"
     borderopacity="1"
     objecttolerance="10"
     gridtolerance="10"
     guidetolerance="10"
     inkscape:pageopacity="0"
     inkscape:pageshadow="2"
     inkscape:window-width="2736"
     inkscape:window-height="1699"
     id="namedview24"
     showgrid="false"
     inkscape:zoom="58"
     inkscape:cx="12"
     inkscape:cy="12"
     inkscape:window-x="-13"
     inkscape:window-y="-13"
     inkscape:window-maximized="1"
     inkscape:current-layer="svg22" />
  <path
     d="M9,5A4,4 0 0,1 13,9A4,4 0 0,1 9,13A4,4 0 0,1 5,9A4,4 0 0,1 9,5M9,15C11.67,15 17,16.34 17,19V21H1V19C1,16.34 6.33,15 9,15M16.76,5.36C18.78,7.56 18.78,10.61 16.76,12.63L15.08,10.94C15.92,9.76 15.92,8.23 15.08,7.05L16.76,5.36M20.07,2C24,6.05 23.97,12.11 20.07,16L18.44,14.37C21.21,11.19 21.21,6.65 18.44,3.63L20.07,2Z"
     id="path20"
     style="fill:#1a5c8c;fill-opacity:1;stroke:#ffffff;stroke-opacity:1;opacity:1;stroke-width:0.1;stroke-miterlimit:4;stroke-dasharray:none" />
</svg>
